<svg width="227" height="36" viewBox="0 0 227 36" fill="none" xmlns="http://www.w3.org/2000/svg">
<path id="Combined Shape" fill-rule="evenodd" clip-rule="evenodd" d="M2.98692 5.13401C2.35132 5.13401 1.80399 4.90387 1.34494 4.44357C0.885894 3.98328 0.656372 3.43448 0.656372 2.79715C0.656372 2.15982 0.885894 1.61102 1.34494 1.15073C1.80399 0.690432 2.35132 0.460291 2.98692 0.460291C3.62253 0.460291 4.16985 0.690432 4.6289 1.15073C5.08795 1.61102 5.31747 2.15982 5.31747 2.79715C5.31747 3.43448 5.08795 3.98328 4.6289 4.44357C4.16985 4.90387 3.62253 5.13401 2.98692 5.13401ZM13.2878 12.7429C14.2023 11.8681 15.3516 11.2731 16.822 11.2731C18.2924 11.2731 19.4417 11.8681 20.3562 12.7429C21.3955 13.7372 21.9152 15.2046 21.9152 17.1452V25.9858C21.9152 26.5129 22.0884 26.9501 22.4349 27.2975C22.7814 27.6449 23.2174 27.8186 23.7431 27.8186C24.2687 27.8186 24.7048 27.6449 25.0513 27.2975C25.3977 26.9501 25.5709 26.5129 25.5709 25.9858V17.1452C25.5709 15.2046 25.2006 13.5455 24.4599 12.1679C23.7192 10.7903 22.6918 9.74217 21.3776 9.02342C20.0635 8.30467 18.5821 7.9453 16.9334 7.9453C16.8962 7.9453 16.8591 7.9455 16.822 7.94591C16.7849 7.9455 16.7478 7.9453 16.7106 7.9453C15.0619 7.9453 13.5806 8.30467 12.2664 9.02342C10.9522 9.74217 9.92483 10.7903 9.18413 12.1679C8.44342 13.5455 8.07307 15.2046 8.07307 17.1452V25.9858C8.07307 26.5129 8.2463 26.9501 8.59276 27.2975C8.93922 27.6449 9.37527 27.8186 9.90093 27.8186C10.4266 27.8186 10.8626 27.6449 11.2091 27.2975C11.5556 26.9501 11.7288 26.5129 11.7288 25.9858V17.1452C11.7288 15.2046 12.2485 13.7372 13.2878 12.7429ZM2.98692 27.8327C2.46901 27.8327 2.03939 27.6571 1.69804 27.3059C1.35669 26.9547 1.18602 26.5127 1.18602 25.9798V9.81234C1.18602 9.25526 1.35669 8.80717 1.69804 8.46808C2.03939 8.12898 2.46901 7.95944 2.98692 7.95944C3.52836 7.95944 3.96387 8.12898 4.29345 8.46808C4.62302 8.80717 4.78781 9.25526 4.78781 9.81234V25.9798C4.78781 26.5127 4.62302 26.9547 4.29345 27.3059C3.96387 27.6571 3.52836 27.8327 2.98692 27.8327ZM98.1577 12.7755C99.0722 11.9007 100.25 11.3056 101.692 11.3056C103.134 11.3056 104.312 11.9007 105.226 12.7755C106.265 13.7697 106.785 15.2372 106.785 17.1778V26.0184C106.785 26.5454 106.958 26.9827 107.305 27.3301C107.651 27.6775 108.087 27.8512 108.613 27.8512C109.139 27.8512 109.575 27.6775 109.921 27.3301C110.268 26.9827 110.441 26.5454 110.441 26.0184V17.1778C110.441 15.2372 110.071 13.5781 109.33 12.2005C108.589 10.8229 107.562 9.77471 106.248 9.05596C104.933 8.33721 103.452 7.97784 101.803 7.97784C101.766 7.97784 101.729 7.97805 101.692 7.97845C101.655 7.97805 101.618 7.97784 101.581 7.97784C99.9318 7.97784 98.4504 8.33721 97.1363 9.05596C95.8221 9.77471 94.7947 10.8229 94.054 12.2005C93.3133 13.5781 92.9429 15.2372 92.9429 17.1778V26.0184C92.9429 26.5454 93.1162 26.9827 93.4626 27.3301C93.8091 27.6775 94.2451 27.8512 94.7708 27.8512C95.2965 27.8512 95.7325 27.6775 96.079 27.3301C96.4255 26.9827 96.5987 26.5454 96.5987 26.0184V17.1778C96.5987 15.2372 97.1184 13.7697 98.1577 12.7755ZM81.3675 27.8552L81.4249 27.855L81.4789 27.8546C81.5159 27.855 81.5531 27.8552 81.5903 27.8552C83.2389 27.8552 84.7203 27.4958 86.0345 26.7771C87.3486 26.0583 88.376 25.0102 89.1167 23.6326C89.8575 22.255 90.2278 20.5959 90.2278 18.6553V9.8147C90.2278 9.28762 90.0546 8.85038 89.7081 8.50299C89.3617 8.15559 88.9256 7.9819 88.3999 7.9819C87.8743 7.9819 87.4382 8.15559 87.0918 8.50299C86.7453 8.85038 86.5721 9.28762 86.5721 9.8147V18.6553C86.5721 20.5959 86.0524 22.0633 85.013 23.0576C84.0985 23.9324 83.2459 24.5274 81.4789 24.5274C79.7118 24.5274 78.8592 23.9324 77.9447 23.0576C76.9053 22.0633 76.3857 20.5959 76.3857 18.6553V9.8147C76.3857 9.28762 76.2124 8.85038 75.866 8.50299C75.5195 8.15559 75.0835 7.9819 74.5578 7.9819C74.0321 7.9819 73.5961 8.15559 73.2496 8.50299C72.9032 8.85038 72.7299 9.28762 72.7299 9.8147V18.6553C72.7299 20.5959 73.1003 22.255 73.841 23.6326C74.5817 25.0102 75.6091 26.0583 76.9233 26.7771C78.2374 27.4958 79.7188 27.8552 81.3675 27.8552ZM38.7319 8.1614C40.4269 8.1614 41.9629 8.5872 43.3401 9.43883C44.7172 10.2905 45.8001 11.4673 46.5887 12.9695C47.3773 14.4717 47.7717 16.1454 47.7717 17.9906C47.7717 19.8358 47.3479 21.5094 46.5004 23.0116C45.653 24.5138 44.4818 25.6966 42.9869 26.56C41.4921 27.4235 39.8384 27.8552 38.0257 27.8552C36.213 27.8552 34.5711 27.4235 33.0997 26.56C31.6284 25.6966 30.4632 24.5138 29.6039 23.0116C28.7447 21.5094 28.315 19.8358 28.315 17.9906V1.8097C28.315 1.26561 28.4857 0.827969 28.8271 0.496781C29.1684 0.165592 29.598 0 30.1159 0C30.6574 0 31.0929 0.165592 31.4225 0.496781C31.752 0.827969 31.9168 1.26561 31.9168 1.8097V11.3905C32.7408 10.3732 33.7412 9.58077 34.9183 9.01302C36.0953 8.44527 37.3665 8.1614 38.7319 8.1614ZM38.0257 24.5973C39.2027 24.5973 40.2679 24.3099 41.2214 23.7352C42.1748 23.1605 42.9281 22.3689 43.4813 21.3602C44.0345 20.3516 44.3111 19.2256 44.3111 17.9824C44.3111 16.7392 44.0345 15.6191 43.4813 14.6222C42.9281 13.6253 42.1748 12.8395 41.2214 12.2648C40.2679 11.6901 39.2027 11.4027 38.0257 11.4027C36.8486 11.4027 35.7834 11.6901 34.83 12.2648C33.8766 12.8395 33.1291 13.6253 32.5877 14.6222C32.0462 15.6191 31.7755 16.7392 31.7755 17.9824C31.7755 19.2256 32.0462 20.3516 32.5877 21.3602C33.1291 22.3689 33.8766 23.1605 34.83 23.7352C35.7834 24.3099 36.8486 24.5973 38.0257 24.5973ZM60.2625 27.854C58.3579 27.854 56.6557 27.4303 55.1558 26.5828C53.6559 25.7354 52.4894 24.5597 51.6561 23.0558C50.8229 21.5518 50.4062 19.845 50.4062 17.9353C50.4062 16.0016 50.8229 14.2829 51.6561 12.7789C52.4894 11.275 53.6559 10.0993 55.1558 9.25188C56.6557 8.40443 58.3579 7.98071 60.2625 7.98071C62.1433 7.98071 63.8277 8.40443 65.3157 9.25188C66.8036 10.0993 67.9702 11.275 68.8154 12.7789C69.6605 14.2829 70.0831 16.0016 70.0831 17.9353C70.0831 19.845 69.6665 21.5518 68.8332 23.0558C68 24.5597 66.8394 25.7354 65.3514 26.5828C63.8634 27.4303 62.1671 27.854 60.2625 27.854ZM60.2625 24.5961C61.4767 24.5961 62.5659 24.3111 63.5301 23.7412C64.4943 23.1713 65.2442 22.3817 65.7799 21.3725C66.3156 20.3633 66.5834 19.2175 66.5834 17.9352C66.5834 16.6528 66.3156 15.5011 65.7799 14.48C65.2442 13.4589 64.4943 12.6634 63.5301 12.0935C62.5659 11.5236 61.4767 11.2386 60.2625 11.2386C59.0483 11.2386 57.9592 11.5236 56.995 12.0935C56.0307 12.6634 55.2749 13.4589 54.7273 14.48C54.1797 15.5011 53.9059 16.6528 53.9059 17.9352C53.9059 19.2175 54.1797 20.3633 54.7273 21.3725C55.2749 22.3817 56.0307 23.1713 56.995 23.7412C57.9592 24.3111 59.0483 24.5961 60.2625 24.5961ZM130.804 0C131.347 0 131.784 0.165592 132.114 0.496781C132.444 0.827969 132.609 1.26561 132.609 1.8097V17.9906C132.609 19.8358 132.179 21.5094 131.318 23.0116C130.456 24.5138 129.289 25.6966 127.814 26.56C126.34 27.4235 124.694 27.8552 122.877 27.8552C121.061 27.8552 119.403 27.4235 117.905 26.56C116.407 25.6966 115.233 24.5138 114.384 23.0116C113.535 21.5094 113.11 19.8358 113.11 17.9906C113.11 16.1454 113.505 14.4717 114.296 12.9695C115.086 11.4673 116.171 10.2905 117.551 9.43883C118.932 8.5872 120.471 8.1614 122.17 8.1614C123.538 8.1614 124.812 8.44527 125.992 9.01302C127.171 9.58077 128.174 10.3732 129 11.3905V1.8097C129 1.26561 129.171 0.827969 129.513 0.496781C129.855 0.165592 130.285 0 130.804 0ZM122.877 24.5973C124.057 24.5973 125.125 24.3099 126.08 23.7352C127.036 23.1605 127.785 22.3689 128.327 21.3602C128.87 20.3516 129.141 19.2256 129.141 17.9824C129.141 16.7392 128.87 15.6191 128.327 14.6222C127.785 13.6253 127.036 12.8395 126.08 12.2648C125.125 11.6901 124.057 11.4027 122.877 11.4027C121.698 11.4027 120.63 11.6901 119.675 12.2648C118.719 12.8395 117.964 13.6253 117.41 14.6222C116.855 15.6191 116.578 16.7392 116.578 17.9824C116.578 19.2256 116.855 20.3516 117.41 21.3602C117.964 22.3689 118.719 23.1605 119.675 23.7352C120.63 24.3099 121.698 24.5973 122.877 24.5973ZM145.147 7.819C146.976 7.819 148.645 8.25578 150.154 9.12933C151.662 10.0029 152.844 11.1995 153.699 12.7193C154.555 14.239 154.982 15.9323 154.982 17.799C154.982 19.6658 154.584 21.359 153.788 22.8788C152.993 24.3985 151.9 25.5892 150.51 26.4508C149.12 27.3124 147.57 27.7431 145.859 27.7431C144.481 27.7431 143.199 27.456 142.011 26.8816C140.823 26.3072 139.813 25.5054 138.982 24.4763V34.1691C138.982 34.7196 138.815 35.1623 138.483 35.4974C138.15 35.8325 137.711 36 137.164 36C136.642 36 136.208 35.8325 135.863 35.4974C135.519 35.1623 135.347 34.7196 135.347 34.1691V17.799C135.347 15.9323 135.78 14.239 136.647 12.7193C137.515 11.1995 138.691 10.0029 140.175 9.12933C141.66 8.25578 143.317 7.819 145.147 7.819ZM145.066 24.7602C146.254 24.7602 147.33 24.4657 148.292 23.8768C149.255 23.288 150.016 22.4828 150.574 21.4612C151.133 20.4397 151.412 19.292 151.412 18.018C151.412 16.7441 151.133 15.5904 150.574 14.5568C150.016 13.5233 149.255 12.712 148.292 12.1231C147.33 11.5343 146.254 11.2398 145.066 11.2398C143.877 11.2398 142.801 11.5343 141.839 12.1231C140.876 12.712 140.121 13.5233 139.575 14.5568C139.028 15.5904 138.755 16.7441 138.755 18.018C138.755 19.292 139.028 20.4397 139.575 21.4612C140.121 22.4828 140.876 23.288 141.839 23.8768C142.801 24.4657 143.877 24.7602 145.066 24.7602ZM163.013 27.8507C162.001 27.8507 161.088 27.5733 160.276 27.0186C159.464 26.4638 158.834 25.6848 158.387 24.6815C157.939 23.6782 157.715 22.551 157.715 21.2998V1.96598C157.715 1.44663 157.88 1.02171 158.21 0.691217C158.54 0.360722 158.963 0.195477 159.481 0.195477C159.999 0.195477 160.423 0.360722 160.753 0.691217C161.083 1.02171 161.247 1.44663 161.247 1.96598V21.2998C161.247 22.1733 161.412 22.8933 161.742 23.4599C162.072 24.0264 162.495 24.3097 163.013 24.3097H163.896C164.367 24.3097 164.75 24.4749 165.044 24.8054C165.339 25.1359 165.486 25.5609 165.486 26.0802C165.486 26.5996 165.262 27.0245 164.815 27.355C164.367 27.6855 163.79 27.8507 163.084 27.8507H163.013ZM176.745 7.9819C178.59 7.9819 180.261 8.41756 181.758 9.28888C183.255 10.1602 184.441 11.3538 185.315 12.8697C186.189 14.3855 186.626 16.0744 186.626 17.9365V25.9216C186.626 26.4468 186.453 26.8824 186.105 27.2286C185.758 27.5747 185.321 27.7478 184.794 27.7478C184.267 27.7478 183.83 27.5747 183.482 27.2286C183.135 26.8824 182.961 26.4468 182.961 25.9216V24.5967C182.123 25.6232 181.105 26.4229 179.907 26.9958C178.71 27.5687 177.416 27.8552 176.027 27.8552C174.302 27.8552 172.739 27.4255 171.338 26.5661C169.937 25.7067 168.835 24.5191 168.032 23.0033C167.23 21.4874 166.829 19.7985 166.829 17.9365C166.829 16.0744 167.26 14.3855 168.122 12.8697C168.984 11.3538 170.176 10.1602 171.697 9.28888C173.218 8.41756 174.901 7.9819 176.745 7.9819ZM176.908 24.7602C178.096 24.7602 179.172 24.4693 180.134 23.8875C181.097 23.3057 181.852 22.5102 182.399 21.501C182.945 20.4917 183.219 19.3578 183.219 18.0993C183.219 16.8407 182.945 15.7009 182.399 14.6797C181.852 13.6586 181.097 12.8572 180.134 12.2754C179.172 11.6936 178.096 11.4027 176.908 11.4027C175.719 11.4027 174.644 11.6936 173.681 12.2754C172.718 12.8572 171.957 13.6586 171.399 14.6797C170.84 15.7009 170.561 16.8407 170.561 18.0993C170.561 19.3578 170.84 20.4917 171.399 21.501C171.957 22.5102 172.718 23.3057 173.681 23.8875C174.644 24.4693 175.719 24.7602 176.908 24.7602ZM226.083 18.7421C226.392 18.4437 226.547 18.0678 226.547 17.6142C226.547 15.7283 226.19 14.0573 225.477 12.6011C224.764 11.1449 223.743 10.011 222.412 9.19936C221.081 8.38772 219.501 7.9819 217.671 7.9819C215.818 7.9819 214.16 8.40562 212.699 9.25307C211.237 10.1005 210.097 11.2822 209.277 12.798C208.457 14.3139 208.047 16.0267 208.047 17.9365C208.047 19.8462 208.481 21.553 209.348 23.057C210.215 24.5609 211.421 25.7366 212.966 26.584C214.511 27.4315 216.257 27.8552 218.206 27.8552C219.299 27.8552 220.445 27.6523 221.646 27.2465C222.846 26.8406 223.85 26.3155 224.658 25.6709C225.038 25.3845 225.228 25.0264 225.228 24.5967C225.228 24.1431 225.014 23.7373 224.586 23.3792C224.325 23.1405 223.968 23.0212 223.517 23.0212C223.065 23.0212 222.673 23.1525 222.341 23.415C221.842 23.797 221.206 24.1193 220.434 24.3819C219.661 24.6444 218.919 24.7757 218.206 24.7757C216.4 24.7757 214.873 24.2625 213.625 23.236C212.378 22.2095 211.623 20.8608 211.362 19.1897H224.907C225.382 19.1897 225.774 19.0405 226.083 18.7421ZM213.5 12.4953C214.58 11.5497 215.985 11.0769 217.716 11.0769C219.281 11.0769 220.55 11.5497 221.522 12.4953C222.495 13.441 223.088 14.7057 223.301 16.2896H211.455C211.74 14.7057 212.421 13.441 213.5 12.4953ZM194.232 26.5949C195.741 27.4613 197.442 27.8945 199.334 27.8945C201.921 27.8945 204.077 27.0883 205.802 25.4758C206.09 25.187 206.233 24.862 206.233 24.501C206.233 24.0197 206.006 23.5865 205.551 23.2014C205.263 22.9848 204.952 22.8765 204.616 22.8765C204.185 22.8765 203.742 23.0449 203.287 23.3819C202.281 24.2243 200.963 24.6454 199.334 24.6454C198.089 24.6454 196.981 24.3566 196.01 23.779C195.04 23.2014 194.286 22.4011 193.747 21.3783C193.208 20.3554 192.938 19.1941 192.938 17.8945C192.938 15.8487 193.513 14.2062 194.663 12.9667C195.813 11.7272 197.31 11.1075 199.155 11.1075C200.065 11.1075 200.873 11.2579 201.58 11.5587C202.287 11.8596 202.939 12.3349 203.538 12.9847C203.922 13.4179 204.389 13.6345 204.94 13.6345C205.251 13.6345 205.527 13.5503 205.766 13.3818C206.293 13.0208 206.557 12.5756 206.557 12.0461C206.557 11.6851 206.437 11.3722 206.197 11.1075C204.329 8.94137 201.981 7.85835 199.155 7.85835C197.286 7.85835 195.609 8.28554 194.124 9.13994C192.639 9.99434 191.483 11.1857 190.656 12.714C189.83 14.2423 189.417 15.9691 189.417 17.8945C189.417 19.7718 189.842 21.4745 190.692 23.0028C191.543 24.5311 192.723 25.7285 194.232 26.5949Z" fill="white"/>
</svg>
